<?xml version="1.0" encoding="utf-8"?>
<!-- Generator: Adobe Illustrator 16.0.4, SVG Export Plug-In . SVG Version: 6.00 Build 0)  -->
<!DOCTYPE svg PUBLIC "-//W3C//DTD SVG 1.1//EN" "http://www.w3.org/Graphics/SVG/1.1/DTD/svg11.dtd">
<svg version="1.1" id="Layer_1" xmlns="http://www.w3.org/2000/svg" xmlns:xlink="http://www.w3.org/1999/xlink" x="0px" y="0px"
	 width="147px" height="89px" viewBox="0 0 147 89" enable-background="new 0 0 147 89" xml:space="preserve">
<rect fill="none" width="147" height="89"/>
<g>
	<g>
		<g>
			<path d="M45.299,26.121c-0.068,0.104-0.173,0.174-0.416,0.174c-0.59,0-1.283-0.035-2.082-0.035c-0.624,0-1.075,0-1.769,0.018
				c-0.017,0-0.017-0.208,0.017-0.226c0.383-0.034,0.539-0.087,0.659-0.156c0.122-0.052,0.19-0.261,0.19-1.96v-1.353
				c0-1.7-0.068-1.909-0.19-1.96c-0.12-0.069-0.276-0.121-0.659-0.174c-0.034,0-0.034-0.208-0.017-0.208c0.451,0,2.152,0,2.601,0
				c0.018,0,0.018,0.208-0.017,0.208c-0.382,0.053-0.537,0.104-0.66,0.174c-0.12,0.051-0.19,0.26-0.19,1.96v1.353
				c0,1.128,0.088,1.648,0.208,1.787c0.105,0.104,0.243,0.173,0.799,0.173c0.538,0,0.902-0.139,1.128-0.398
				c0.208-0.243,0.363-0.642,0.434-0.937c0.018-0.052,0.243-0.018,0.243,0.034C45.524,25.079,45.387,25.982,45.299,26.121z"/>
			<path d="M49.876,26.277c-0.018,0-0.035-0.208,0-0.226c0.295-0.017,0.486-0.087,0.486-0.226c0-0.155-0.121-0.468-0.677-1.786
				c0.018,0-1.892,0-1.907,0c-0.453,1.179-0.556,1.526-0.556,1.734c0,0.156,0.138,0.243,0.538,0.277
				c0.051,0.018,0.033,0.226,0,0.226c-0.278,0-1.562,0-2.012,0c-0.035,0-0.035-0.208,0-0.226c0.294-0.017,0.468-0.069,0.606-0.173
				c0.19-0.14,0.398-0.486,0.954-1.943l0.52-1.353c0.296-0.78,0.608-1.596,0.85-2.324c0.018-0.069,0.4-0.069,0.434,0
				c0.278,0.815,0.538,1.475,0.868,2.324l0.537,1.353c0.694,1.77,0.834,1.855,1.008,1.96c0.172,0.104,0.311,0.14,0.589,0.156
				c0.034,0.018,0.018,0.226,0,0.226C51.663,26.277,50.327,26.277,49.876,26.277z M48.731,21.49l-0.78,2.116h1.578L48.731,21.49z"/>
			<path d="M55.229,26.277c-0.017,0-0.017-0.208,0.018-0.226c0.381-0.034,0.624-0.087,0.729-0.156
				c0.121-0.052,0.209-0.261,0.209-1.96v-1.353c0-1.7-0.088-1.909-0.209-1.96c-0.104-0.069-0.348-0.121-0.729-0.174
				c-0.034,0-0.034-0.208-0.018-0.208c0.451,0,2.308,0,2.758,0c0.017,0,0.017,0.208-0.017,0.208
				c-0.382,0.053-0.624,0.104-0.728,0.174c-0.123,0.051-0.208,0.26-0.208,1.96v1.353c0,1.699,0.085,1.908,0.208,1.96
				c0.104,0.069,0.346,0.122,0.728,0.156c0.034,0.018,0.034,0.226,0.017,0.226C57.536,26.277,55.68,26.277,55.229,26.277z"/>
			<path d="M65.392,23.676c-0.363,0.034-0.484,0.069-0.606,0.156c-0.086,0.052-0.121,0.347-0.121,1.942v0.069
				c-0.521,0.312-1.405,0.521-2.187,0.521c-1.907,0-3.468-1.388-3.468-3.035c0-1.596,1.283-3.175,3.433-3.175
				c1.007,0,1.649,0.33,1.979,0.243c0.052,0,0.069,0.018,0.069,0.034c0.018,0.33,0.053,0.902,0.053,1.405
				c0,0.035-0.243,0.035-0.243-0.017c-0.035-0.261-0.208-0.591-0.399-0.764c-0.348-0.33-0.972-0.555-1.613-0.555
				c-1.526,0-2.325,1.162-2.325,2.566c0,1.544,1.024,2.914,2.828,2.914c0.435,0,0.747-0.069,1.023-0.191
				c-0.018-1.699-0.07-1.907-0.155-1.959c-0.105-0.053-0.349-0.122-0.729-0.156c-0.035,0-0.035-0.226,0-0.226
				c0.451,0,2.029,0,2.48,0C65.444,23.45,65.444,23.676,65.392,23.676z"/>
			<path d="M70.593,26.121c-0.07,0.104-0.174,0.174-0.417,0.174c-0.589,0-1.282-0.035-2.081-0.035c-0.624,0-1.075,0-1.769,0.018
				c-0.018,0-0.018-0.208,0.018-0.226c0.379-0.034,0.537-0.087,0.658-0.156c0.12-0.052,0.19-0.261,0.19-1.96v-1.353
				c0-1.7-0.07-1.909-0.19-1.96c-0.121-0.069-0.278-0.121-0.658-0.174c-0.036,0-0.036-0.208-0.018-0.208c0.45,0,2.149,0,2.601,0
				c0.018,0,0.018,0.208-0.018,0.208c-0.381,0.053-0.536,0.104-0.659,0.174c-0.12,0.051-0.19,0.26-0.19,1.96v1.353
				c0,1.128,0.087,1.648,0.208,1.787c0.105,0.104,0.243,0.173,0.799,0.173c0.537,0,0.903-0.139,1.128-0.398
				c0.208-0.243,0.363-0.642,0.433-0.937c0.018-0.052,0.243-0.018,0.243,0.034C70.818,25.079,70.68,25.982,70.593,26.121z"/>
			<path d="M75.726,26.121c-0.069,0.104-0.122,0.174-0.364,0.174c-0.59,0-1.284-0.035-2.083-0.035c-0.624,0-1.005,0-1.682,0.018
				c-0.034,0-0.034-0.208,0-0.226c0.382-0.034,0.556-0.087,0.659-0.156c0.122-0.052,0.209-0.261,0.209-1.96v-1.353
				c0-1.7-0.087-1.909-0.209-1.96c-0.104-0.069-0.277-0.121-0.659-0.174c-0.034,0-0.034-0.208,0-0.208
				c0.748,0.018,1.925,0.018,2.549,0.018c0.799,0,1.25-0.018,1.528-0.035c0.052-0.017,0.069,0.018,0.069,0.035
				c-0.035,0.312-0.052,0.763-0.104,1.249c-0.018,0.052-0.243,0.034-0.243-0.018c0-0.243-0.051-0.469-0.19-0.625
				c-0.156-0.156-0.434-0.242-1.11-0.242c-0.381,0-0.642,0.018-0.746,0.018c-0.035,0.104-0.035,0.416-0.035,1.006v1.301h0.712
				c0.919,0,1.041-0.208,1.093-0.538c0.018-0.034,0.243-0.034,0.243,0c-0.017,0.261-0.053,1.37-0.053,1.612
				c0,0.035-0.242,0.035-0.242,0c0-0.173-0.035-0.415-0.139-0.502c-0.088-0.069-0.226-0.174-0.92-0.174h-0.694v0.59
				c0,1.128,0.088,1.648,0.208,1.787c0.123,0.104,0.243,0.173,0.816,0.173c0.59,0,0.919-0.139,1.093-0.329
				c0.139-0.139,0.243-0.33,0.312-0.642c0.017-0.052,0.19,0,0.173,0.034C75.882,25.445,75.795,25.982,75.726,26.121z"/>
			<path d="M79.054,26.364c-0.902,0-1.526-0.451-1.544-0.556c-0.07-0.312-0.07-0.85-0.018-1.336c0-0.035,0.227-0.052,0.227,0
				c0.034,0.365,0.171,0.694,0.312,0.902C78.309,25.739,78.671,26,79.227,26c0.693,0,1.042-0.451,1.042-1.093
				c0-1.37-2.549-1.613-2.549-3.157c0-0.953,0.902-1.631,1.786-1.631c0.729,0,0.919,0.261,1.266,0.174
				c0.036-0.018,0.069,0.018,0.069,0.035c-0.016,0.329,0,0.797-0.016,1.301c0,0.035-0.227,0.035-0.244,0
				c-0.017-0.295-0.156-0.659-0.312-0.815c-0.208-0.208-0.556-0.329-0.852-0.329c-0.536,0-0.935,0.364-0.935,0.937
				c0,1.162,2.635,1.613,2.635,3.14C81.117,25.723,80.024,26.364,79.054,26.364z"/>
			<path d="M82.294,26.277c-0.016,0-0.016-0.208,0.019-0.226c0.382-0.034,0.626-0.087,0.728-0.156
				c0.122-0.052,0.209-0.261,0.209-1.96v-1.353c0-1.7-0.087-1.909-0.209-1.96c-0.102-0.069-0.346-0.121-0.728-0.174
				c-0.034,0-0.034-0.208-0.019-0.208c0.451,0,2.309,0,2.76,0c0.016,0,0.016,0.208-0.019,0.208
				c-0.381,0.053-0.625,0.104-0.729,0.174c-0.122,0.051-0.208,0.26-0.208,1.96v1.353c0,1.699,0.086,1.908,0.208,1.96
				c0.104,0.069,0.348,0.122,0.729,0.156c0.034,0.018,0.034,0.226,0.019,0.226C84.603,26.277,82.745,26.277,82.294,26.277z"/>
			<path d="M89.32,26.277c-0.018,0-0.036-0.208,0-0.226c0.294-0.017,0.484-0.087,0.484-0.226c0-0.155-0.121-0.468-0.676-1.786
				c0.017,0-1.891,0-1.908,0c-0.451,1.179-0.556,1.526-0.556,1.734c0,0.156,0.139,0.243,0.538,0.277
				c0.052,0.018,0.035,0.226,0,0.226c-0.277,0-1.561,0-2.012,0c-0.036,0-0.036-0.208,0-0.226c0.295-0.017,0.469-0.069,0.607-0.173
				c0.188-0.14,0.398-0.486,0.953-1.943l0.52-1.353c0.296-0.78,0.608-1.596,0.852-2.324c0.018-0.069,0.398-0.069,0.434,0
				c0.276,0.815,0.538,1.475,0.867,2.324l0.537,1.353c0.692,1.77,0.833,1.855,1.006,1.96c0.174,0.104,0.312,0.14,0.59,0.156
				c0.035,0.018,0.018,0.226,0,0.226C91.104,26.277,89.771,26.277,89.32,26.277z M88.173,21.49l-0.778,2.116h1.578L88.173,21.49z"/>
			<path d="M99.996,25.358c-0.659,0.642-1.387,0.919-2.602,0.919c-0.434,0-1.109-0.018-1.476-0.018
				c-0.346,0-0.867,0.018-1.281,0.018c-0.037,0-0.037-0.208,0-0.226c0.381-0.034,0.537-0.087,0.659-0.156
				c0.12-0.052,0.208-0.261,0.208-1.96v-1.353c0-1.7-0.088-1.909-0.208-1.96c-0.122-0.069-0.278-0.121-0.659-0.174
				c-0.037,0-0.037-0.208,0-0.208c0.414,0,0.936,0.018,1.281,0.018c0.366,0,1.251-0.018,1.667-0.018
				c1.941,0,3.397,1.267,3.397,2.949C100.983,23.988,100.586,24.785,99.996,25.358z M97.308,20.588
				c-0.588,0-0.745,0.086-0.815,0.174c-0.052,0.069-0.139,0.503-0.139,1.786v1.388c0,1.128,0.087,1.613,0.209,1.752
				c0.172,0.174,0.312,0.226,0.815,0.226c1.873,0,2.671-0.815,2.671-2.567C100.049,21.924,99.129,20.588,97.308,20.588z"/>
			<path d="M106.205,26.121c-0.068,0.104-0.121,0.174-0.363,0.174c-0.59,0-1.285-0.035-2.082-0.035c-0.625,0-1.006,0-1.684,0.018
				c-0.034,0-0.034-0.208,0-0.226c0.383-0.034,0.557-0.087,0.66-0.156c0.122-0.052,0.208-0.261,0.208-1.96v-1.353
				c0-1.7-0.086-1.909-0.208-1.96c-0.104-0.069-0.277-0.121-0.66-0.174c-0.034,0-0.034-0.208,0-0.208
				c0.746,0.018,1.925,0.018,2.551,0.018c0.798,0,1.249-0.018,1.527-0.035c0.051-0.017,0.068,0.018,0.068,0.035
				c-0.035,0.312-0.053,0.763-0.104,1.249c-0.019,0.052-0.243,0.034-0.243-0.018c0-0.243-0.052-0.469-0.19-0.625
				c-0.156-0.156-0.434-0.242-1.11-0.242c-0.381,0-0.642,0.018-0.745,0.018c-0.035,0.104-0.035,0.416-0.035,1.006v1.301h0.711
				c0.919,0,1.042-0.208,1.093-0.538c0.017-0.034,0.243-0.034,0.243,0c-0.018,0.261-0.053,1.37-0.053,1.612
				c0,0.035-0.241,0.035-0.241,0c0-0.173-0.037-0.415-0.141-0.502c-0.087-0.069-0.226-0.174-0.919-0.174h-0.693v0.59
				c0,1.128,0.086,1.648,0.206,1.787c0.124,0.104,0.244,0.173,0.816,0.173c0.59,0,0.921-0.139,1.093-0.329
				c0.14-0.139,0.244-0.33,0.312-0.642c0.018-0.052,0.19,0,0.173,0.034C106.361,25.445,106.275,25.982,106.205,26.121z"/>
		</g>
		<g>
			<path d="M25.815,33.143c-0.719,0.074-1.178,0.129-1.399,0.258c-0.239,0.129-0.423,0.626-0.387,3.975l0.056,4.987
				c0.038,3.22-0.718,4.635-3.918,6.126c-0.056,0.038-0.223-0.202-0.148-0.258c1.62-1.178,2.467-1.968,2.467-5.868v-4.987
				c0-3.349-0.167-3.846-0.388-3.975c-0.222-0.129-0.698-0.184-1.417-0.258c-0.073-0.018-0.073-0.387-0.018-0.387
				c0.863,0,4.307,0,5.17,0C25.889,32.756,25.907,33.125,25.815,33.143z"/>
			<path d="M35.767,44.478c-0.092,0.109-0.645,0.222-1.417,0.222c-1.104,0-1.674-0.057-3.202-0.057
				c-1.195,0-2.079,0.019-3.387,0.036c-0.054,0-0.054-0.367,0.02-0.386c0.717-0.073,1.141-0.129,1.361-0.257
				c0.222-0.129,0.388-0.627,0.388-3.975v-2.687c0-3.349-0.166-3.846-0.388-3.975c-0.221-0.129-0.645-0.184-1.361-0.258
				c-0.073-0.018-0.073-0.387-0.02-0.387c1.437,0.02,3.847,0.038,5.043,0.038c1.546,0,2.152-0.019,2.705-0.093
				c0.092,0,0.11,0.037,0.11,0.074c-0.036,0.644-0.092,1.563-0.202,2.557c-0.018,0.074-0.404,0.056-0.404-0.055
				c0-0.441-0.131-0.957-0.423-1.251c-0.37-0.405-0.829-0.552-1.878-0.552c-0.719,0-1.398,0-1.564,0.036
				c-0.055,0.185-0.074,0.865-0.074,2.024v2.613h1.509c1.75,0,1.786-0.497,1.896-1.16c0.02-0.073,0.404-0.054,0.404,0
				c-0.018,0.497-0.073,2.797-0.091,3.312c0,0.055-0.405,0.055-0.405-0.019c0-0.331-0.092-0.957-0.258-1.141
				c-0.165-0.166-0.257-0.277-1.564-0.277h-1.49v1.233c0,2.375,0.112,3.46,0.277,3.626c0.165,0.164,0.736,0.239,1.823,0.239
				c1.14,0,1.563-0.276,1.893-0.626c0.222-0.239,0.442-0.773,0.608-1.472c0.018-0.092,0.405-0.02,0.405,0.073
				C35.987,43.098,35.784,44.44,35.767,44.478z"/>
			<path d="M41.803,44.918c-1.528,0-2.78-0.68-2.945-0.919c-0.018-0.036-0.201-1.95-0.109-2.889c0-0.092,0.405-0.111,0.423,0
				c0.037,0.699,0.387,1.637,0.644,2.023c0.46,0.699,1.252,1.159,2.373,1.159c1.271,0,1.97-0.846,1.97-2.17
				c0-2.908-4.839-3.055-4.839-6.404c0-1.748,1.417-3.257,3.349-3.257c1.398,0,1.6,0.442,2.392,0.35
				c0.074-0.018,0.11,0.019,0.11,0.056c0,0.644,0.038,1.729,0,2.723c-0.018,0.056-0.405,0.056-0.423-0.037
				c-0.055-0.735-0.221-1.38-0.571-1.784c-0.403-0.441-0.92-0.718-1.71-0.718c-0.993,0-1.748,0.865-1.748,2.006
				c0,2.482,4.913,3.092,4.913,6.273C45.63,43.631,43.66,44.918,41.803,44.918z"/>
			<path d="M59.026,33.455c-0.147,0.13-0.312,0.571-0.312,3.92v3.091c0,2.208-1.692,4.325-4.841,4.325
				c-2.87,0-4.617-1.896-4.617-4.288v-3.128c0-3.349-0.166-3.846-0.388-3.975c-0.239-0.129-0.553-0.184-1.269-0.258
				c-0.074-0.018-0.074-0.387-0.019-0.387c0.864,0,4.104,0,4.967,0c0.056,0,0.056,0.369-0.018,0.387
				c-0.719,0.074-1.104,0.129-1.343,0.258c-0.222,0.129-0.386,0.626-0.386,3.975v2.797c0,2.024,1.269,3.698,3.698,3.698
				c2.264,0,3.386-1.711,3.386-3.495v-3c0-3.349-0.185-3.79-0.331-3.92c-0.204-0.184-0.627-0.238-1.363-0.312
				c-0.072-0.018-0.054-0.387,0-0.387c0.865,0,3.258,0,4.123,0c0.055,0,0.091,0.369,0,0.387
				C59.596,33.217,59.229,33.271,59.026,33.455z"/>
			<path d="M72.11,44.072c-0.056,0.092-1.289,0.865-3.663,0.865c-3.919,0-6.403-2.741-6.403-6.073c0-3.146,2.265-6.365,6.367-6.365
				c2.079,0,3.11,0.699,3.771,0.552c0.074-0.019,0.111,0.037,0.111,0.074c0.019,0.644,0.073,1.969,0.055,2.961
				c-0.019,0.075-0.404,0.075-0.424-0.036c-0.073-0.754-0.312-1.38-0.754-1.858c-0.551-0.57-1.71-1.049-2.943-1.049
				c-3.202,0-4.453,2.576-4.453,5.189c0,2.998,1.896,5.888,4.711,5.888c1.361,0,2.244-0.387,2.869-1.159
				c0.388-0.479,0.608-1.03,0.774-1.582c0.019-0.112,0.404-0.019,0.404,0.055C72.479,42.307,72.147,44.018,72.11,44.072z"/>
			<path d="M86.629,44.679c-1.602,0-2.467-0.184-3.186-0.661c-0.938-0.644-1.932-1.895-3.421-4.416
				c-0.901,0.019-1.271,0.019-1.971-0.02v0.479c0,3.348,0.167,3.846,0.388,3.975c0.24,0.128,0.792,0.165,1.601,0.257
				c0.074,0.019,0.074,0.386,0.019,0.386c-0.866,0-4.342,0-5.207,0c-0.055,0-0.073-0.367,0.019-0.386
				c0.718-0.073,1.03-0.129,1.25-0.257c0.24-0.129,0.388-0.627,0.388-3.975v-2.687c0-3.349-0.147-3.846-0.388-3.975
				c-0.22-0.129-0.532-0.184-1.25-0.258c-0.092-0.018-0.073-0.387-0.019-0.387c0.809,0,1.747,0.038,2.43,0.038
				c0.68,0,1.416-0.038,2.244-0.038c2.741,0,4.12,1.528,4.12,2.926c0,1.473-0.918,2.65-2.206,3.441
				c2.613,3.899,4.083,5.152,5.316,5.152c0.719,0,1.16-0.111,1.381-0.239c0.22-0.129,0.386-0.627,0.386-3.975v-2.687
				c0-3.349-0.166-3.846-0.386-3.975c-0.221-0.129-0.699-0.184-1.417-0.258c-0.073-0.018-0.073-0.387-0.018-0.387
				c0.863,0,4.305,0,5.171,0c0.071,0,0.071,0.369-0.021,0.387c-0.716,0.074-1.177,0.129-1.398,0.258
				c-0.238,0.129-0.386,0.626-0.386,3.975v2.687c0,3.348,0.147,3.846,0.386,3.975c0.222,0.128,0.683,0.184,1.398,0.257
				c0.092,0.019,0.092,0.386,0.021,0.386C91.007,44.679,87.511,44.679,86.629,44.679z M79.487,33.382
				c-0.624,0-1.177,0.093-1.231,0.166c-0.093,0.11-0.204,1.159-0.204,3.827c0,1.104,0.038,1.308,0.111,1.38
				c0.129,0.129,0.646,0.201,1.528,0.201c1.509,0,2.208-1.14,2.208-2.575C81.899,34.615,81.255,33.382,79.487,33.382z"/>
			<path d="M97.095,44.918c-1.526,0-2.777-0.68-2.943-0.919c-0.019-0.036-0.202-1.95-0.11-2.889c0-0.092,0.403-0.111,0.424,0
				c0.034,0.699,0.387,1.637,0.644,2.023c0.46,0.699,1.251,1.159,2.374,1.159c1.27,0,1.969-0.846,1.969-2.17
				c0-2.908-4.84-3.055-4.84-6.404c0-1.748,1.417-3.257,3.35-3.257c1.397,0,1.601,0.442,2.393,0.35
				c0.072-0.018,0.108,0.019,0.108,0.056c0,0.644,0.038,1.729,0,2.723c-0.017,0.056-0.403,0.056-0.423-0.037
				c-0.056-0.735-0.22-1.38-0.57-1.784c-0.405-0.441-0.921-0.718-1.712-0.718c-0.993,0-1.748,0.865-1.748,2.006
				c0,2.482,4.913,3.092,4.913,6.273C100.922,43.631,98.953,44.918,97.095,44.918z"/>
			<path d="M113.143,35.719c-0.021,0.093-0.404,0.093-0.404-0.037c0-0.46-0.057-1.343-0.368-1.674
				c-0.367-0.387-1.125-0.699-2.742-0.699c-0.423,0-0.644,0-0.829,0.037c-0.055,0.184-0.072,1.066-0.072,2.227v4.489
				c0,3.348,0.165,3.846,0.385,3.975c0.222,0.128,0.682,0.184,1.417,0.257c0.075,0.019,0.075,0.386,0.019,0.386
				c-0.883,0-4.306,0-5.188,0c-0.057,0-0.057-0.367,0.035-0.386c0.719-0.073,1.178-0.129,1.397-0.257
				c0.24-0.129,0.388-0.627,0.388-3.975v-4.489c0-1.16-0.018-2.043-0.072-2.227c-0.185-0.037-0.499-0.037-0.921-0.037
				c-1.729,0-2.319,0.184-2.741,0.699c-0.294,0.35-0.479,0.994-0.607,1.711c-0.018,0.129-0.405,0.074-0.405-0.037
				c0.11-0.956,0.222-2.354,0.276-2.98c0-0.056,0.092-0.092,0.22-0.073c0.646,0.11,1.822,0.202,5.024,0.202
				c4.398,0,4.802-0.129,5.136-0.239c0.108-0.037,0.199,0.019,0.199,0.073C113.288,33.363,113.252,34.744,113.143,35.719z"/>
			<path d="M120.352,44.938c-3.365,0-6.035-2.741-6.035-6.073c0-3.292,2.538-6.365,6.313-6.365c3.366,0,6.035,2.741,6.035,6.072
				C126.665,41.865,124.126,44.938,120.352,44.938z M120.26,33.161c-3.22,0-4.27,2.797-4.27,5.171c0,2.998,1.842,5.943,4.729,5.943
				c3.223,0,4.269-2.797,4.269-5.172C124.988,36.105,123.13,33.161,120.26,33.161z"/>
		</g>
		<g>
			<path d="M42.593,56.24c-0.659,0.643-1.389,0.92-2.603,0.92c-0.433,0-1.109-0.018-1.475-0.018c-0.346,0-0.865,0.018-1.283,0.018
				c-0.035,0-0.035-0.208,0-0.227c0.381-0.034,0.538-0.086,0.659-0.155c0.122-0.052,0.208-0.26,0.208-1.96v-1.354
				c0-1.699-0.086-1.906-0.208-1.959c-0.121-0.07-0.278-0.122-0.659-0.175c-0.035,0-0.035-0.207,0-0.207
				c0.418,0,0.938,0.017,1.283,0.017c0.365,0,1.25-0.017,1.666-0.017c1.942,0,3.399,1.267,3.399,2.948
				C43.581,54.871,43.181,55.668,42.593,56.24z M39.904,51.471c-0.59,0-0.747,0.088-0.815,0.174c-0.052,0.069-0.14,0.502-0.14,1.786
				v1.388c0,1.127,0.088,1.613,0.208,1.752c0.175,0.174,0.313,0.226,0.816,0.226c1.874,0,2.671-0.815,2.671-2.566
				C42.645,52.807,41.726,51.471,39.904,51.471z"/>
			<path d="M48.802,57.004c-0.07,0.104-0.123,0.174-0.364,0.174c-0.591,0-1.285-0.035-2.082-0.035c-0.624,0-1.007,0-1.682,0.018
				c-0.035,0-0.035-0.208,0-0.227c0.382-0.034,0.555-0.086,0.657-0.155c0.123-0.052,0.21-0.26,0.21-1.96v-1.354
				c0-1.699-0.087-1.906-0.21-1.959c-0.103-0.07-0.275-0.122-0.657-0.175c-0.035,0-0.035-0.207,0-0.207
				c0.745,0.017,1.925,0.017,2.549,0.017c0.799,0,1.248-0.017,1.526-0.033c0.053-0.019,0.069,0.017,0.069,0.033
				c-0.034,0.312-0.052,0.764-0.104,1.25c-0.018,0.052-0.243,0.033-0.243-0.018c0-0.243-0.051-0.469-0.19-0.624
				c-0.155-0.157-0.434-0.243-1.11-0.243c-0.381,0-0.642,0.016-0.744,0.016c-0.035,0.105-0.035,0.418-0.035,1.008v1.301h0.711
				c0.92,0,1.041-0.209,1.094-0.539c0.015-0.035,0.242-0.035,0.242,0c-0.018,0.261-0.052,1.371-0.052,1.613
				c0,0.035-0.243,0.035-0.243,0c0-0.173-0.035-0.416-0.139-0.502c-0.087-0.069-0.226-0.173-0.919-0.173h-0.694v0.589
				c0,1.127,0.086,1.648,0.208,1.786c0.122,0.104,0.243,0.174,0.814,0.174c0.591,0,0.92-0.14,1.093-0.33
				c0.14-0.138,0.243-0.329,0.312-0.642c0.018-0.052,0.191,0,0.174,0.035C48.957,56.328,48.871,56.865,48.802,57.004z"/>
			<path d="M57.347,57.004c-0.07,0.104-0.173,0.174-0.416,0.174c-0.589,0-1.283-0.035-2.082-0.035c-0.624,0-1.075,0-1.769,0.018
				c-0.018,0-0.018-0.208,0.018-0.227c0.38-0.034,0.537-0.086,0.658-0.155c0.123-0.052,0.19-0.26,0.19-1.96v-1.354
				c0-1.699-0.067-1.906-0.19-1.959c-0.121-0.07-0.278-0.122-0.658-0.175c-0.035,0-0.035-0.207-0.018-0.207c0.45,0,2.151,0,2.601,0
				c0.02,0,0.02,0.207-0.018,0.207c-0.381,0.053-0.536,0.104-0.657,0.175c-0.122,0.053-0.192,0.26-0.192,1.959v1.354
				c0,1.127,0.088,1.648,0.21,1.786c0.104,0.104,0.241,0.174,0.797,0.174c0.539,0,0.902-0.14,1.128-0.398
				c0.208-0.243,0.363-0.644,0.434-0.938c0.018-0.053,0.243-0.017,0.243,0.035C57.572,55.964,57.434,56.865,57.347,57.004z"/>
			<path d="M61.491,57.246c-1.84,0-3.209-1.353-3.209-3.035c0-1.597,1.37-3.174,3.33-3.174c1.839,0,3.21,1.354,3.21,3.035
				C64.821,55.668,63.45,57.246,61.491,57.246z M61.421,51.419c-1.699,0-2.186,1.388-2.186,2.532c0,1.509,0.902,2.914,2.446,2.914
				c1.7,0,2.185-1.388,2.185-2.532C63.866,52.824,62.966,51.419,61.421,51.419z"/>
			<path d="M67.49,57.246c-0.903,0-1.527-0.45-1.545-0.555c-0.068-0.312-0.068-0.85-0.018-1.336c0-0.033,0.226-0.051,0.226,0
				c0.035,0.365,0.175,0.694,0.312,0.902c0.278,0.364,0.642,0.625,1.198,0.625c0.693,0,1.04-0.451,1.04-1.094
				c0-1.369-2.551-1.612-2.551-3.156c0-0.954,0.903-1.63,1.786-1.63c0.729,0,0.92,0.26,1.268,0.173
				c0.033-0.017,0.068,0.018,0.068,0.035c-0.018,0.329,0,0.799-0.018,1.301c0,0.034-0.224,0.034-0.243,0
				c-0.018-0.295-0.155-0.659-0.311-0.815c-0.208-0.208-0.557-0.328-0.851-0.328c-0.537,0-0.937,0.362-0.937,0.935
				c0,1.162,2.637,1.613,2.637,3.14C69.554,56.604,68.461,57.246,67.49,57.246z"/>
			<path d="M75.688,57.246c-0.902,0-1.528-0.45-1.543-0.555c-0.07-0.312-0.07-0.85-0.018-1.336c0-0.033,0.226-0.051,0.226,0
				c0.034,0.365,0.173,0.694,0.311,0.902c0.278,0.364,0.644,0.625,1.198,0.625c0.693,0,1.04-0.451,1.04-1.094
				c0-1.369-2.549-1.612-2.549-3.156c0-0.954,0.901-1.63,1.786-1.63c0.728,0,0.918,0.26,1.265,0.173
				c0.036-0.017,0.07,0.018,0.07,0.035c-0.017,0.329,0,0.799-0.017,1.301c0,0.034-0.226,0.034-0.244,0
				c-0.016-0.295-0.156-0.659-0.312-0.815c-0.207-0.208-0.555-0.328-0.85-0.328c-0.537,0-0.938,0.362-0.938,0.935
				c0,1.162,2.638,1.613,2.638,3.14C77.752,56.604,76.657,57.246,75.688,57.246z"/>
			<path d="M82.153,57.16c-0.016,0-0.032-0.208,0-0.227c0.295-0.017,0.487-0.086,0.487-0.225c0-0.156-0.122-0.469-0.676-1.786
				c0.018,0-1.893,0-1.908,0c-0.451,1.179-0.555,1.525-0.555,1.733c0,0.156,0.139,0.243,0.536,0.277
				c0.054,0.019,0.034,0.227,0,0.227c-0.276,0-1.56,0-2.011,0c-0.035,0-0.035-0.208,0-0.227c0.294-0.017,0.467-0.068,0.607-0.173
				c0.189-0.139,0.399-0.485,0.952-1.942l0.521-1.354c0.295-0.78,0.607-1.595,0.851-2.324c0.016-0.068,0.398-0.068,0.433,0
				c0.278,0.816,0.537,1.474,0.868,2.324l0.538,1.354c0.692,1.77,0.83,1.854,1.004,1.96c0.175,0.104,0.312,0.139,0.591,0.155
				c0.034,0.019,0.017,0.227,0,0.227C83.941,57.16,82.604,57.16,82.153,57.16z M81.011,52.373l-0.782,2.115h1.58L81.011,52.373z"/>
			<path d="M90.98,51.521c-0.087,0.07-0.174,0.244-0.174,1.943v1.354c0,0.78,0,1.613,0.054,2.342c0,0.052-0.296,0.069-0.348,0.018
				l-4.598-4.648l0.036,2.289c0.016,1.562,0.139,1.854,0.276,1.96c0.087,0.069,0.417,0.155,0.676,0.155c0.054,0,0.036,0.227,0,0.227
				c-0.485,0-1.873,0-2.324,0c-0.035,0-0.035-0.208,0-0.227c0.381-0.034,0.608-0.086,0.712-0.173
				c0.087-0.069,0.173-0.242,0.155-1.942l-0.017-1.354c-0.019-0.78,0-1.612-0.052-2.341c0-0.052,0.328-0.069,0.347-0.017
				l4.614,4.682l-0.034-2.324c-0.019-1.699-0.156-1.89-0.261-1.959c-0.123-0.087-0.347-0.138-0.746-0.175
				c-0.053,0-0.034-0.207,0-0.207c0.451,0,1.891,0,2.34,0c0.036,0,0.053,0.207,0,0.207C91.257,51.384,91.084,51.436,90.98,51.521z"
				/>
			<path d="M97.881,52.477c0,0.018-0.227,0.018-0.227-0.018c0-0.242-0.052-0.486-0.172-0.624c-0.192-0.173-0.451-0.313-1.491-0.313
				c-0.21,0-0.331,0.019-0.418,0.019c-0.033,0.104-0.052,0.47-0.052,1.058v2.221c0,1.7,0.089,1.908,0.209,1.96
				c0.121,0.069,0.362,0.121,0.745,0.155c0.034,0.019,0.034,0.227,0,0.227c-0.451,0-2.289,0-2.741,0c-0.033,0-0.033-0.208,0-0.227
				c0.383-0.034,0.624-0.086,0.746-0.155c0.123-0.052,0.19-0.26,0.19-1.96v-2.221c0-0.588,0-0.953-0.033-1.058
				c-0.087,0-0.261-0.019-0.47-0.019c-0.987,0-1.266,0.105-1.489,0.313c-0.157,0.138-0.245,0.416-0.296,0.642
				c0,0.035-0.226,0-0.226-0.034c0.052-0.47,0.104-1.023,0.138-1.354c0-0.017,0.018-0.034,0.053-0.034
				c0.347,0.053,1.094,0.104,2.758,0.104c2.29,0,2.636-0.052,2.81-0.122c0.036,0,0.052,0.018,0.052,0.035
				C97.967,51.436,97.951,51.973,97.881,52.477z"/>
			<path d="M101.693,57.246c-1.839,0-3.209-1.353-3.209-3.035c0-1.597,1.37-3.174,3.33-3.174c1.839,0,3.209,1.354,3.209,3.035
				C105.023,55.668,103.653,57.246,101.693,57.246z M101.625,51.419c-1.701,0-2.186,1.388-2.186,2.532
				c0,1.509,0.901,2.914,2.444,2.914c1.7,0,2.186-1.388,2.186-2.532C104.069,52.824,103.168,51.419,101.625,51.419z"/>
			<path d="M107.691,57.246c-0.902,0-1.525-0.45-1.543-0.555c-0.07-0.312-0.07-0.85-0.019-1.336c0-0.033,0.227-0.051,0.227,0
				c0.034,0.365,0.173,0.694,0.312,0.902c0.276,0.364,0.642,0.625,1.195,0.625c0.694,0,1.041-0.451,1.041-1.094
				c0-1.369-2.549-1.612-2.549-3.156c0-0.954,0.9-1.63,1.786-1.63c0.729,0,0.919,0.26,1.266,0.173
				c0.034-0.017,0.07,0.018,0.07,0.035c-0.018,0.329,0,0.799-0.018,1.301c0,0.034-0.225,0.034-0.243,0
				c-0.017-0.295-0.156-0.659-0.312-0.815c-0.207-0.208-0.556-0.328-0.851-0.328c-0.537,0-0.936,0.362-0.936,0.935
				c0,1.162,2.637,1.613,2.637,3.14C109.756,56.604,108.663,57.246,107.691,57.246z"/>
		</g>
		<g>
			<path d="M26.206,67.875c-0.659,0.642-1.388,0.919-2.602,0.919c-0.436,0-1.111-0.018-1.475-0.018
				c-0.347,0-0.867,0.018-1.283,0.018c-0.035,0-0.035-0.208,0-0.226c0.381-0.035,0.536-0.087,0.659-0.156
				c0.12-0.052,0.208-0.26,0.208-1.96V65.1c0-1.7-0.088-1.908-0.208-1.961c-0.123-0.068-0.278-0.122-0.659-0.173
				c-0.035,0-0.035-0.208,0-0.208c0.416,0,0.937,0.018,1.283,0.018c0.363,0,1.248-0.018,1.665-0.018c1.943,0,3.4,1.266,3.4,2.949
				C27.195,66.504,26.795,67.302,26.206,67.875z M23.518,63.104c-0.591,0-0.747,0.087-0.816,0.173
				c-0.051,0.07-0.139,0.504-0.139,1.787v1.388c0,1.128,0.088,1.612,0.208,1.753c0.174,0.172,0.313,0.224,0.816,0.224
				c1.872,0,2.67-0.814,2.67-2.566C26.257,64.44,25.337,63.104,23.518,63.104z"/>
			<path d="M32.415,68.638c-0.07,0.104-0.122,0.174-0.365,0.174c-0.589,0-1.283-0.035-2.081-0.035c-0.624,0-1.007,0-1.683,0.018
				c-0.035,0-0.035-0.208,0-0.226c0.381-0.035,0.556-0.087,0.659-0.156c0.122-0.052,0.208-0.26,0.208-1.96V65.1
				c0-1.7-0.086-1.908-0.208-1.961c-0.104-0.068-0.278-0.122-0.659-0.173c-0.035,0-0.035-0.208,0-0.208
				c0.746,0.018,1.927,0.018,2.55,0.018c0.798,0,1.249-0.018,1.526-0.035c0.053-0.018,0.07,0.018,0.07,0.035
				c-0.035,0.312-0.053,0.763-0.105,1.248c-0.018,0.053-0.242,0.035-0.242-0.017c0-0.243-0.053-0.469-0.19-0.625
				c-0.155-0.156-0.434-0.243-1.11-0.243c-0.381,0-0.642,0.019-0.745,0.019c-0.035,0.104-0.035,0.416-0.035,1.006v1.301h0.712
				c0.918,0,1.04-0.208,1.091-0.538c0.018-0.035,0.243-0.035,0.243,0c-0.018,0.26-0.053,1.37-0.053,1.613
				c0,0.035-0.241,0.035-0.241,0c0-0.175-0.034-0.416-0.14-0.503c-0.084-0.069-0.226-0.174-0.92-0.174h-0.692v0.59
				c0,1.128,0.086,1.648,0.209,1.786c0.12,0.104,0.242,0.174,0.814,0.174c0.589,0,0.919-0.139,1.092-0.33
				c0.139-0.138,0.243-0.328,0.313-0.641c0.016-0.053,0.19,0,0.173,0.034C32.57,67.961,32.483,68.499,32.415,68.638z"/>
			<path d="M40.96,68.638c-0.069,0.104-0.173,0.174-0.415,0.174c-0.592,0-1.285-0.035-2.082-0.035c-0.624,0-1.075,0-1.77,0.018
				c-0.018,0-0.018-0.208,0.018-0.226c0.381-0.035,0.538-0.087,0.659-0.156c0.122-0.052,0.19-0.26,0.19-1.96V65.1
				c0-1.7-0.068-1.908-0.19-1.961c-0.121-0.068-0.278-0.122-0.659-0.173c-0.035,0-0.035-0.208-0.018-0.208c0.451,0,2.151,0,2.601,0
				c0.018,0,0.018,0.208-0.017,0.208c-0.381,0.051-0.537,0.104-0.659,0.173c-0.12,0.053-0.19,0.261-0.19,1.961v1.353
				c0,1.128,0.088,1.648,0.208,1.786c0.104,0.104,0.242,0.174,0.798,0.174c0.539,0,0.902-0.139,1.128-0.397
				c0.208-0.244,0.364-0.644,0.435-0.939c0.017-0.051,0.242-0.017,0.242,0.036C41.187,67.597,41.048,68.499,40.96,68.638z"/>
			<path d="M45.104,68.88c-1.839,0-3.21-1.354-3.21-3.035c0-1.596,1.371-3.174,3.331-3.174c1.839,0,3.209,1.353,3.209,3.036
				C48.435,67.302,47.064,68.88,45.104,68.88z M45.034,63.054c-1.698,0-2.185,1.387-2.185,2.531c0,1.509,0.902,2.914,2.445,2.914
				c1.701,0,2.186-1.388,2.186-2.532C47.48,64.457,46.578,63.054,45.034,63.054z"/>
			<path d="M51.103,68.88c-0.902,0-1.526-0.451-1.543-0.555c-0.07-0.311-0.07-0.85-0.018-1.335c0-0.035,0.226-0.053,0.226,0
				c0.035,0.364,0.172,0.693,0.312,0.902c0.278,0.363,0.643,0.624,1.196,0.624c0.694,0,1.04-0.452,1.04-1.093
				c0-1.371-2.548-1.613-2.548-3.157c0-0.954,0.901-1.631,1.786-1.631c0.729,0,0.919,0.261,1.266,0.174
				c0.035-0.017,0.07,0.017,0.07,0.035c-0.018,0.329,0,0.798-0.018,1.299c0,0.036-0.226,0.036-0.243,0
				c-0.018-0.293-0.156-0.657-0.313-0.813c-0.208-0.208-0.554-0.329-0.85-0.329c-0.536,0-0.934,0.364-0.934,0.936
				c0,1.163,2.636,1.614,2.636,3.139C53.168,68.238,52.074,68.88,51.103,68.88z"/>
			<path d="M63.394,63.157c-0.088,0.068-0.173,0.242-0.173,1.942v1.561c0,1.11-0.937,2.22-2.445,2.22
				c-1.492,0-2.533-0.987-2.533-2.202V65.1c0-1.7-0.085-1.908-0.208-1.961c-0.121-0.068-0.278-0.122-0.659-0.173
				c-0.035,0-0.035-0.208,0-0.208c0.451,0,2.185,0,2.636,0c0.018,0,0.035,0.208-0.016,0.208c-0.364,0.051-0.573,0.104-0.694,0.173
				c-0.121,0.053-0.209,0.261-0.209,1.961v1.335c0,1.162,0.711,1.908,1.909,1.908c1.18,0,1.734-0.763,1.734-1.804V65.1
				c0-1.7-0.087-1.874-0.174-1.942c-0.104-0.087-0.33-0.141-0.711-0.191c-0.035,0-0.018-0.208,0-0.208c0.469,0,1.751,0,2.202,0
				c0.035,0,0.053,0.208,0,0.208C63.672,63.017,63.499,63.07,63.394,63.157z M61.938,61.353c0-0.017-0.069,0-0.087,0
				c-0.329,0-0.85,0.122-1.752,0.451c-0.088,0.035-0.121-0.156-0.104-0.19c0.259-0.191,1.161-0.694,1.509-0.851
				c0.068-0.052,0.139-0.052,0.174-0.052c0.017,0,0.067-0.018,0.138,0.104c0.122,0.155,0.226,0.312,0.243,0.434
				C62.093,61.282,62.041,61.353,61.938,61.353z"/>
			<path d="M69.376,68.638c-0.069,0.104-0.175,0.174-0.418,0.174c-0.588,0-1.282-0.035-2.08-0.035c-0.626,0-1.075,0-1.769,0.018
				c-0.018,0-0.018-0.208,0.018-0.226c0.381-0.035,0.536-0.087,0.658-0.156c0.121-0.052,0.191-0.26,0.191-1.96V65.1
				c0-1.7-0.07-1.908-0.191-1.961c-0.122-0.068-0.277-0.122-0.658-0.173c-0.035,0-0.035-0.208-0.018-0.208c0.45,0,2.149,0,2.602,0
				c0.017,0,0.017,0.208-0.018,0.208c-0.382,0.051-0.537,0.104-0.659,0.173c-0.123,0.053-0.19,0.261-0.19,1.961v1.353
				c0,1.128,0.084,1.648,0.208,1.786c0.104,0.104,0.243,0.174,0.798,0.174c0.537,0,0.9-0.139,1.126-0.397
				c0.208-0.244,0.365-0.644,0.434-0.939c0.018-0.051,0.243-0.017,0.243,0.036C69.6,67.597,69.462,68.499,69.376,68.638z"/>
			<path d="M75.289,64.11c0,0.018-0.226,0.018-0.226-0.018c0-0.242-0.052-0.485-0.175-0.625c-0.19-0.173-0.449-0.311-1.49-0.311
				c-0.208,0-0.33,0.017-0.416,0.017c-0.035,0.104-0.053,0.469-0.053,1.059v2.22c0,1.7,0.087,1.908,0.208,1.96
				c0.121,0.069,0.365,0.121,0.746,0.156c0.034,0.018,0.034,0.226,0,0.226c-0.451,0-2.29,0-2.741,0c-0.033,0-0.033-0.208,0-0.226
				c0.383-0.035,0.624-0.087,0.747-0.156c0.12-0.052,0.19-0.26,0.19-1.96v-2.22c0-0.59,0-0.955-0.035-1.059
				c-0.086,0-0.261-0.017-0.469-0.017c-0.988,0-1.265,0.104-1.491,0.311c-0.155,0.14-0.242,0.417-0.295,0.643
				c0,0.033-0.226,0-0.226-0.034c0.053-0.469,0.104-1.022,0.14-1.354c0-0.017,0.017-0.034,0.051-0.034
				c0.349,0.052,1.094,0.104,2.759,0.104c2.289,0,2.636-0.053,2.811-0.122c0.033,0,0.051,0.018,0.051,0.035
				C75.375,63.07,75.357,63.607,75.289,64.11z"/>
			<path d="M76.065,68.794c-0.018,0-0.018-0.208,0.019-0.226c0.381-0.035,0.623-0.087,0.728-0.156
				c0.121-0.052,0.209-0.26,0.209-1.96V65.1c0-1.7-0.088-1.908-0.209-1.961c-0.104-0.068-0.347-0.122-0.728-0.173
				c-0.036,0-0.036-0.208-0.019-0.208c0.451,0,2.308,0,2.759,0c0.017,0,0.017,0.208-0.018,0.208
				c-0.381,0.051-0.624,0.104-0.729,0.173c-0.121,0.053-0.208,0.261-0.208,1.961v1.353c0,1.7,0.087,1.908,0.208,1.96
				c0.104,0.069,0.348,0.121,0.729,0.156c0.034,0.018,0.034,0.226,0.018,0.226C78.373,68.794,76.517,68.794,76.065,68.794z"/>
			<path d="M85.675,68.794c-0.019,0-0.034-0.208,0-0.226c0.261-0.018,0.467-0.052,0.571-0.121c0.105-0.087,0.14-0.279-0.034-1.995
				l-0.19-1.857l-2.047,4.217c0,0.052-0.313,0.052-0.313,0l-2.202-4.18l-0.174,1.768c-0.172,1.769-0.052,1.943,0.07,2.029
				c0.086,0.07,0.347,0.122,0.607,0.14c0.051,0.018,0.034,0.226,0,0.226c-0.451,0-1.805,0-2.272,0c-0.018,0-0.018-0.208,0.033-0.226
				c0.384-0.035,0.591-0.087,0.695-0.173c0.069-0.053,0.225-0.243,0.381-1.943l0.123-1.353c0.067-0.781,0.155-1.597,0.19-2.324
				c0-0.035,0.294-0.069,0.312-0.018l2.584,4.943l2.409-4.943c0.035-0.052,0.33-0.018,0.33,0.018
				c0.054,0.814,0.104,1.474,0.209,2.324l0.155,1.353c0.191,1.7,0.261,1.908,0.365,1.96c0.121,0.069,0.295,0.121,0.676,0.156
				c0.035,0.018,0.053,0.226,0.017,0.226C87.72,68.794,86.125,68.794,85.675,68.794z"/>
			<path d="M92.057,68.88c-1.837,0-3.21-1.354-3.21-3.035c0-1.596,1.373-3.174,3.33-3.174c1.839,0,3.21,1.353,3.21,3.036
				C95.387,67.302,94.016,68.88,92.057,68.88z M91.986,63.054c-1.7,0-2.186,1.387-2.186,2.531c0,1.509,0.902,2.914,2.446,2.914
				c1.7,0,2.187-1.388,2.187-2.532C94.434,64.457,93.531,63.054,91.986,63.054z"/>
			<path d="M98.054,68.88c-0.902,0-1.525-0.451-1.544-0.555c-0.069-0.311-0.069-0.85-0.016-1.335c0-0.035,0.225-0.053,0.225,0
				c0.035,0.364,0.172,0.693,0.312,0.902c0.276,0.363,0.642,0.624,1.196,0.624c0.695,0,1.042-0.452,1.042-1.093
				c0-1.371-2.55-1.613-2.55-3.157c0-0.954,0.902-1.631,1.786-1.631c0.729,0,0.92,0.261,1.266,0.174
				c0.036-0.017,0.071,0.017,0.071,0.035c-0.017,0.329,0,0.798-0.017,1.299c0,0.036-0.228,0.036-0.244,0
				c-0.017-0.293-0.156-0.657-0.312-0.813c-0.209-0.208-0.556-0.329-0.851-0.329c-0.538,0-0.937,0.364-0.937,0.936
				c0,1.163,2.637,1.614,2.637,3.139C100.119,68.238,99.026,68.88,98.054,68.88z"/>
			<path d="M110.068,67.875c-0.658,0.642-1.388,0.919-2.602,0.919c-0.435,0-1.11-0.018-1.475-0.018
				c-0.348,0-0.867,0.018-1.283,0.018c-0.035,0-0.035-0.208,0-0.226c0.381-0.035,0.537-0.087,0.659-0.156
				c0.12-0.052,0.208-0.26,0.208-1.96V65.1c0-1.7-0.088-1.908-0.208-1.961c-0.122-0.068-0.278-0.122-0.659-0.173
				c-0.035,0-0.035-0.208,0-0.208c0.416,0,0.936,0.018,1.283,0.018c0.364,0,1.249-0.018,1.665-0.018
				c1.941,0,3.399,1.266,3.399,2.949C111.057,66.504,110.658,67.302,110.068,67.875z M107.38,63.104
				c-0.59,0-0.745,0.087-0.815,0.173c-0.053,0.07-0.14,0.504-0.14,1.787v1.388c0,1.128,0.087,1.612,0.21,1.753
				c0.173,0.172,0.311,0.224,0.815,0.224c1.872,0,2.67-0.814,2.67-2.566C110.12,64.44,109.201,63.104,107.38,63.104z"/>
			<path d="M111.923,68.794c-0.017,0-0.017-0.208,0.019-0.226c0.381-0.035,0.623-0.087,0.728-0.156
				c0.122-0.052,0.209-0.26,0.209-1.96V65.1c0-1.7-0.087-1.908-0.209-1.961c-0.104-0.068-0.347-0.122-0.728-0.173
				c-0.035,0-0.035-0.208-0.019-0.208c0.451,0,2.308,0,2.759,0c0.017,0,0.017,0.208-0.018,0.208
				c-0.381,0.051-0.624,0.104-0.729,0.173c-0.121,0.053-0.208,0.261-0.208,1.961v1.353c0,1.7,0.087,1.908,0.208,1.96
				c0.104,0.069,0.348,0.121,0.729,0.156c0.034,0.018,0.034,0.226,0.018,0.226C114.23,68.794,112.374,68.794,111.923,68.794z
				 M114.23,61.353c0-0.017-0.069,0-0.085,0c-0.331,0-0.851,0.122-1.754,0.451c-0.088,0.035-0.12-0.156-0.104-0.19
				c0.261-0.191,1.164-0.694,1.509-0.851c0.07-0.052,0.14-0.052,0.175-0.052c0.018,0,0.069-0.018,0.138,0.104
				c0.122,0.155,0.228,0.312,0.244,0.434C114.387,61.282,114.336,61.353,114.23,61.353z"/>
			<path d="M118.947,68.794c-0.016,0-0.034-0.208,0-0.226c0.295-0.018,0.487-0.087,0.487-0.226c0-0.156-0.122-0.468-0.677-1.786
				c0.017,0-1.892,0-1.908,0c-0.451,1.18-0.556,1.525-0.556,1.734c0,0.156,0.139,0.242,0.538,0.277c0.052,0.018,0.034,0.226,0,0.226
				c-0.279,0-1.561,0-2.012,0c-0.036,0-0.036-0.208,0-0.226c0.295-0.018,0.466-0.069,0.608-0.173
				c0.188-0.14,0.397-0.486,0.952-1.943l0.521-1.353c0.296-0.781,0.607-1.597,0.849-2.324c0.019-0.069,0.4-0.069,0.435,0
				c0.277,0.814,0.538,1.474,0.867,2.324l0.538,1.353c0.694,1.769,0.832,1.856,1.006,1.96c0.175,0.104,0.312,0.139,0.591,0.156
				c0.032,0.018,0.017,0.226,0,0.226C120.735,68.794,119.398,68.794,118.947,68.794z M117.802,64.007l-0.779,2.116h1.579
				L117.802,64.007z"/>
			<path d="M123.02,68.88c-0.9,0-1.525-0.451-1.542-0.555c-0.069-0.311-0.069-0.85-0.019-1.335c0-0.035,0.228-0.053,0.228,0
				c0.032,0.364,0.172,0.693,0.312,0.902c0.276,0.363,0.64,0.624,1.194,0.624c0.694,0,1.041-0.452,1.041-1.093
				c0-1.371-2.548-1.613-2.548-3.157c0-0.954,0.902-1.631,1.786-1.631c0.727,0,0.918,0.261,1.266,0.174
				c0.036-0.017,0.068,0.017,0.068,0.035c-0.016,0.329,0,0.798-0.016,1.299c0,0.036-0.226,0.036-0.243,0
				c-0.019-0.293-0.157-0.657-0.313-0.813c-0.206-0.208-0.555-0.329-0.851-0.329c-0.536,0-0.934,0.364-0.934,0.936
				c0,1.163,2.637,1.614,2.637,3.139C125.087,68.238,123.992,68.88,123.02,68.88z"/>
		</g>
	</g>
</g>
</svg>
